<?xml version="1.0" encoding="utf-8"?>
<!-- Generator: Adobe Illustrator 23.0.1, SVG Export Plug-In . SVG Version: 6.00 Build 0)  -->
<svg version="1.1" id="Layer_1" xmlns="http://www.w3.org/2000/svg" xmlns:xlink="http://www.w3.org/1999/xlink" x="0px" y="0px"
	 viewBox="0 0 31.9 25.8" style="enable-background:new 0 0 31.9 25.8;" xml:space="preserve">
<style type="text/css">
	.st0{fill:#000715;}
	.st1{fill:#EDEDED;}
</style>
<rect x="-17.2" y="30.3" class="st0" width="31.9" height="25.8"/>
<path class="st1" d="M-0.5,39.4c0,0.2,0,0.4-0.1,0.5c-0.2,0.5-0.5,0.9-1,1.2c-0.2,0.1-0.5,0.2-0.8,0.2h-4.2c-0.2,0-0.3-0.1-0.4-0.2
	c-0.1-0.1-0.2-0.3-0.2-0.5s0.1-0.4,0.2-0.5C-6.9,40-6.7,40-6.5,40h0.2c0.4,0,0.7-0.3,0.7-0.7c0-0.4-0.3-0.7-0.7-0.7h-2.2
	c-0.4,0-0.7-0.3-0.7-0.7c0-0.4,0.3-0.7,0.7-0.7h1.8c0.4,0,0.7-0.3,0.7-0.7c0-0.4-0.3-0.7-0.7-0.7h-0.6c-0.4,0-0.7-0.3-0.7-0.7
	c0-0.4,0.3-0.7,0.7-0.7h4.3c0,0,0.1,0,0.1,0c0.6,0,1.1,0.4,1.3,0.9c0.1,0.1,0.1,0.3,0.2,0.5c0,0.1,0,0.2,0,0.3
	c0,0.2-0.1,0.5-0.1,0.7c0,0,0,0.1-0.1,0.1c0,0.1,0,0.2,0,0.2c0,0.2,0.1,0.4,0.3,0.5c0,0,0.1,0,0.1,0.1c0.3,0.2,0.5,0.5,0.6,0.8
	C-0.6,38.9-0.5,39.1-0.5,39.4z"/>
<path class="st1" d="M-7.1,43.8C-7,43.9-7,44-7,44.2v0.7h-0.3v-0.6c0-0.1,0-0.1-0.1-0.2c0,0-0.1-0.1-0.2-0.1c-0.1,0-0.1,0-0.2,0.1
	c0,0-0.1,0.1-0.1,0.2v0.6h-0.3v-0.6c0-0.1,0-0.1-0.1-0.2c0,0-0.1-0.1-0.2-0.1c-0.1,0-0.1,0-0.2,0.1c0,0-0.1,0.1-0.1,0.2v0.6h-0.3
	v-1.1h0.3v0.1c0,0,0.1-0.1,0.1-0.1c0.1,0,0.1,0,0.2,0c0.1,0,0.2,0,0.2,0.1c0.1,0,0.1,0.1,0.2,0.2c0-0.1,0.1-0.1,0.2-0.1
	c0.1,0,0.1-0.1,0.2-0.1C-7.3,43.7-7.2,43.7-7.1,43.8z"/>
<path class="st1" d="M-6,45.7v1.1h-0.3v-0.2c0,0-0.1,0.1-0.1,0.1c-0.1,0-0.1,0-0.2,0c-0.1,0-0.2,0-0.2-0.1s-0.1-0.1-0.2-0.2
	s-0.1-0.2-0.1-0.3v-0.7h0.3v0.6c0,0.1,0,0.1,0.1,0.2c0,0,0.1,0.1,0.2,0.1c0.1,0,0.1,0,0.2-0.1c0,0,0.1-0.1,0.1-0.2v-0.6H-6z"/>
<path class="st1" d="M-5.3,45.7c0.1,0,0.1,0,0.2,0c0.1,0,0.2,0,0.3,0.1c0.1,0,0.1,0.1,0.2,0.2c0,0.1,0.1,0.2,0.1,0.3
	c0,0.1,0,0.2-0.1,0.3c0,0.1-0.1,0.2-0.2,0.2c-0.1,0-0.2,0.1-0.3,0.1c-0.1,0-0.1,0-0.2,0c-0.1,0-0.1-0.1-0.1-0.1v0.2h-0.3v-1.5h0.3
	v0.5C-5.4,45.8-5.4,45.8-5.3,45.7z M-5,46.1c0,0-0.1-0.1-0.2-0.1c-0.1,0-0.1,0-0.2,0.1c0,0-0.1,0.1-0.1,0.2c0,0.1,0,0.2,0.1,0.2
	c0,0,0.1,0.1,0.2,0.1s0.1,0,0.2-0.1c0-0.1,0.1-0.1,0.1-0.2C-5,46.2-5,46.1-5,46.1z"/>
<path class="st1" d="M-4.4,45.5c0,0-0.1-0.1-0.1-0.1c0-0.1,0-0.1,0.1-0.1c0,0,0.1-0.1,0.1-0.1c0.1,0,0.1,0,0.1,0.1
	c0,0,0.1,0.1,0.1,0.1c0,0.1,0,0.1-0.1,0.1c0,0-0.1,0.1-0.1,0.1C-4.3,45.6-4.4,45.6-4.4,45.5z M-4.1,45.7v1.1h-0.3v-1.1H-4.1z"/>
<path class="st1" d="M-3,45.4h-0.4l-0.5,1.4h0.4l0.1-0.3l0.1-0.3l0.2-0.5l0.2,0.5l0.1,0.3l0.1,0.3h0.4L-3,45.4z"/>
<path class="st1" d="M-1.9,45.7c0.1,0,0.1,0,0.2,0c0.1,0,0.2,0,0.3,0.1c0.1,0,0.1,0.1,0.2,0.2c0,0.1,0.1,0.2,0.1,0.3
	c0,0.1,0,0.2-0.1,0.3c0,0.1-0.1,0.2-0.2,0.2c-0.1,0-0.2,0.1-0.3,0.1c-0.1,0-0.1,0-0.2,0C-2,46.8-2,46.7-2,46.7v0.7h-0.3v-1.6H-2v0.2
	C-2,45.8-2,45.8-1.9,45.7z M-1.6,46.1c0,0-0.1-0.1-0.2-0.1c-0.1,0-0.1,0-0.2,0.1c0,0-0.1,0.1-0.1,0.2c0,0.1,0,0.2,0.1,0.2
	c0,0,0.1,0.1,0.2,0.1s0.1,0,0.2-0.1c0-0.1,0.1-0.1,0.1-0.2C-1.5,46.2-1.6,46.1-1.6,46.1z"/>
<path class="st1" d="M-0.5,45.7c0.1,0,0.1,0,0.2,0c0.1,0,0.2,0,0.3,0.1c0.1,0,0.1,0.1,0.2,0.2c0,0.1,0.1,0.2,0.1,0.3
	c0,0.1,0,0.2-0.1,0.3c0,0.1-0.1,0.2-0.2,0.2c-0.1,0-0.2,0.1-0.3,0.1c-0.1,0-0.1,0-0.2,0c-0.1,0-0.1-0.1-0.1-0.1v0.7H-1v-1.6h0.3v0.2
	C-0.6,45.8-0.6,45.8-0.5,45.7z M-0.3,46.1c0,0-0.1-0.1-0.2-0.1c-0.1,0-0.1,0-0.2,0.1c0,0-0.1,0.1-0.1,0.2c0,0.1,0,0.2,0.1,0.2
	c0,0,0.1,0.1,0.2,0.1s0.1,0,0.2-0.1c0-0.1,0.1-0.1,0.1-0.2C-0.2,46.2-0.2,46.1-0.3,46.1z"/>
<path class="st1" d="M0.6,46.8c-0.1,0-0.1-0.1-0.2-0.1s-0.1-0.1-0.1-0.2h0.4c0,0.1,0,0.1,0.1,0.1s0.1,0,0.1,0c0.1,0,0.1,0,0.1,0
	s0-0.1,0-0.1c0,0,0-0.1,0-0.1s-0.1,0-0.1-0.1s-0.1,0-0.1,0c-0.1,0-0.2-0.1-0.2-0.1c-0.1,0-0.1-0.1-0.1-0.1c0-0.1-0.1-0.1-0.1-0.2
	c0-0.1,0-0.2,0.1-0.3c0.1-0.1,0.2-0.1,0.4-0.1c0.2,0,0.3,0,0.4,0.1s0.1,0.2,0.2,0.3H1c0,0,0-0.1,0-0.1c0,0-0.1,0-0.1,0
	c0,0-0.1,0-0.1,0s0,0.1,0,0.1c0,0,0,0.1,0.1,0.1c0,0,0.1,0.1,0.2,0.1c0.1,0,0.2,0.1,0.2,0.1c0.1,0,0.1,0.1,0.1,0.1
	c0,0.1,0.1,0.1,0.1,0.2c0,0.1,0,0.2-0.1,0.2c0,0.1-0.1,0.1-0.2,0.2c-0.1,0-0.2,0.1-0.3,0.1C0.7,46.8,0.7,46.8,0.6,46.8z"/>
<path class="st1" d="M2.2,46.5v0.3H2c-0.1,0-0.2,0-0.3-0.1s-0.1-0.2-0.1-0.3V46H1.5v-0.3h0.1v-0.3H2v0.3h0.2V46H2v0.4
	c0,0,0,0.1,0,0.1s0,0,0.1,0H2.2z"/>
<path class="st1" d="M2.6,46.8c-0.1,0-0.2-0.1-0.2-0.2s-0.1-0.2-0.1-0.3c0-0.1,0-0.2,0.1-0.3c0.1-0.1,0.1-0.2,0.2-0.2
	s0.2-0.1,0.3-0.1s0.2,0,0.3,0.1s0.2,0.1,0.2,0.2c0.1,0.1,0.1,0.2,0.1,0.3c0,0.1,0,0.2-0.1,0.3c-0.1,0.1-0.1,0.2-0.2,0.2
	S3,46.8,2.9,46.8S2.7,46.8,2.6,46.8z M3.1,46.5c0,0,0.1-0.1,0.1-0.2c0-0.1,0-0.2-0.1-0.2S3,46,2.9,46c-0.1,0-0.1,0-0.2,0.1
	c0,0-0.1,0.1-0.1,0.2c0,0.1,0,0.2,0.1,0.2c0,0,0.1,0.1,0.2,0.1S3,46.5,3.1,46.5z"/>
<path class="st1" d="M4.1,45.8c0.1,0,0.1-0.1,0.2-0.1v0.4H4.3c-0.1,0-0.1,0-0.2,0.1c0,0-0.1,0.1-0.1,0.2v0.5H3.7v-1.1H4v0.2
	C4,45.8,4.1,45.8,4.1,45.8z"/>
<path class="st1" d="M4.5,46c0-0.1,0.1-0.2,0.2-0.2c0.1,0,0.2-0.1,0.3-0.1c0.1,0,0.1,0,0.2,0s0.1,0.1,0.1,0.1v-0.2h0.3v1.1H5.3v-0.2
	c0,0.1-0.1,0.1-0.1,0.1c-0.1,0-0.1,0-0.2,0c-0.1,0-0.2,0-0.2-0.1c-0.1,0-0.1-0.1-0.2-0.2c0-0.1-0.1-0.2-0.1-0.3
	C4.4,46.2,4.5,46.1,4.5,46z M5.2,46.1C5.2,46,5.1,46,5,46c-0.1,0-0.1,0-0.2,0.1c0,0-0.1,0.1-0.1,0.2c0,0.1,0,0.2,0.1,0.2
	c0,0,0.1,0.1,0.2,0.1c0.1,0,0.1,0,0.2-0.1c0,0,0.1-0.1,0.1-0.2C5.3,46.2,5.3,46.1,5.2,46.1z"/>
<path class="st1" d="M6.5,45.7c0.1,0,0.1,0.1,0.1,0.1v-0.2H7v1.1c0,0.1,0,0.2-0.1,0.3s-0.1,0.1-0.2,0.2c-0.1,0-0.2,0.1-0.3,0.1
	c-0.2,0-0.3,0-0.4-0.1c-0.1-0.1-0.2-0.2-0.2-0.3h0.3c0,0,0,0.1,0.1,0.1c0,0,0.1,0,0.1,0c0.1,0,0.1,0,0.2-0.1s0.1-0.1,0.1-0.2v-0.2
	c0,0.1-0.1,0.1-0.1,0.1c-0.1,0-0.1,0-0.2,0c-0.1,0-0.2,0-0.3-0.1c-0.1,0-0.1-0.1-0.2-0.2c0-0.1-0.1-0.2-0.1-0.3c0-0.1,0-0.2,0.1-0.3
	c0-0.1,0.1-0.2,0.2-0.2c0.1,0,0.2-0.1,0.3-0.1C6.4,45.7,6.4,45.7,6.5,45.7z M6.6,46.1c0,0-0.1-0.1-0.2-0.1c-0.1,0-0.1,0-0.2,0.1
	c0,0-0.1,0.1-0.1,0.2c0,0.1,0,0.2,0.1,0.2c0,0,0.1,0.1,0.2,0.1c0.1,0,0.1,0,0.2-0.1c0,0,0.1-0.1,0.1-0.2C6.6,46.2,6.6,46.1,6.6,46.1
	z"/>
<path class="st1" d="M8.3,46.4H7.5c0,0.1,0,0.1,0.1,0.2c0,0,0.1,0.1,0.1,0.1c0.1,0,0.1,0,0.2-0.1h0.4c0,0.1-0.1,0.1-0.1,0.2
	S8,46.8,8,46.8c-0.1,0-0.2,0.1-0.2,0.1c-0.1,0-0.2,0-0.3-0.1c-0.1,0-0.2-0.1-0.2-0.2s-0.1-0.2-0.1-0.3s0-0.2,0.1-0.3
	c0-0.1,0.1-0.2,0.2-0.2c0.1,0,0.2-0.1,0.3-0.1c0.1,0,0.2,0,0.3,0.1s0.1,0.1,0.2,0.2c0,0.1,0.1,0.2,0.1,0.3
	C8.3,46.3,8.3,46.3,8.3,46.4z M7.9,46.2c0-0.1,0-0.1-0.1-0.1c0,0-0.1-0.1-0.1-0.1c-0.1,0-0.1,0-0.1,0c0,0-0.1,0.1-0.1,0.1H7.9z"/>
<rect x="0" y="0" class="st0" width="31.9" height="25.8"/>
<g>
	<path class="st1" d="M11.9,13.9c0,0.2,0,0.4-0.1,0.5c-0.2,0.5-0.5,0.9-1,1.2c-0.2,0.1-0.5,0.2-0.8,0.2H5.9c-0.2,0-0.3-0.1-0.4-0.2
		c-0.1-0.1-0.2-0.3-0.2-0.5s0.1-0.4,0.2-0.5c0.1-0.1,0.3-0.2,0.4-0.2h0.2c0.4,0,0.7-0.3,0.7-0.7c0-0.4-0.3-0.7-0.7-0.7H3.9
		c-0.4,0-0.7-0.3-0.7-0.7c0-0.4,0.3-0.7,0.7-0.7h1.8c0.4,0,0.7-0.3,0.7-0.7c0-0.4-0.3-0.7-0.7-0.7H5.1c-0.4,0-0.7-0.3-0.7-0.7
		C4.4,9.3,4.7,9,5.1,9h4.3c0,0,0.1,0,0.1,0c0.6,0,1.1,0.4,1.3,0.9c0.1,0.1,0.1,0.3,0.2,0.5c0,0.1,0,0.2,0,0.3c0,0.2-0.1,0.5-0.1,0.7
		c0,0,0,0.1-0.1,0.1c0,0.1,0,0.2,0,0.2c0,0.2,0.1,0.4,0.3,0.5c0,0,0.1,0,0.1,0.1c0.3,0.2,0.5,0.5,0.6,0.8
		C11.9,13.3,11.9,13.6,11.9,13.9z"/>
	<g>
		<path class="st1" d="M15,11.6c0.1,0.1,0.1,0.2,0.1,0.4v0.7h-0.3V12c0-0.1,0-0.1-0.1-0.2c0,0-0.1-0.1-0.2-0.1c-0.1,0-0.1,0-0.2,0.1
			c0,0-0.1,0.1-0.1,0.2v0.6H14V12c0-0.1,0-0.1-0.1-0.2c0,0-0.1-0.1-0.2-0.1c-0.1,0-0.1,0-0.2,0.1c0,0-0.1,0.1-0.1,0.2v0.6h-0.3v-1.1
			h0.3v0.1c0,0,0.1-0.1,0.1-0.1c0.1,0,0.1,0,0.2,0c0.1,0,0.2,0,0.2,0.1c0.1,0,0.1,0.1,0.2,0.2c0-0.1,0.1-0.1,0.2-0.1
			c0.1,0,0.1-0.1,0.2-0.1C14.8,11.5,14.9,11.6,15,11.6z"/>
		<path class="st1" d="M16.5,11.5v1.1h-0.3v-0.2c0,0-0.1,0.1-0.1,0.1c-0.1,0-0.1,0-0.2,0c-0.1,0-0.2,0-0.2-0.1s-0.1-0.1-0.2-0.2
			s-0.1-0.2-0.1-0.3v-0.7h0.3v0.6c0,0.1,0,0.1,0.1,0.2c0,0,0.1,0.1,0.2,0.1c0.1,0,0.1,0,0.2-0.1c0,0,0.1-0.1,0.1-0.2v-0.6H16.5z"/>
		<path class="st1" d="M17.2,11.6c0.1,0,0.1,0,0.2,0c0.1,0,0.2,0,0.3,0.1c0.1,0,0.1,0.1,0.2,0.2c0,0.1,0.1,0.2,0.1,0.3
			c0,0.1,0,0.2-0.1,0.3c0,0.1-0.1,0.2-0.2,0.2c-0.1,0-0.2,0.1-0.3,0.1c-0.1,0-0.1,0-0.2,0c-0.1,0-0.1-0.1-0.1-0.1v0.2h-0.3v-1.5H17
			v0.5C17.1,11.6,17.1,11.6,17.2,11.6z M17.5,11.9c0,0-0.1-0.1-0.2-0.1c-0.1,0-0.1,0-0.2,0.1c0,0-0.1,0.1-0.1,0.2
			c0,0.1,0,0.2,0.1,0.2c0,0,0.1,0.1,0.2,0.1s0.1,0,0.2-0.1c0-0.1,0.1-0.1,0.1-0.2C17.5,12,17.5,11.9,17.5,11.9z"/>
		<path class="st1" d="M18.1,11.4c0,0-0.1-0.1-0.1-0.1c0-0.1,0-0.1,0.1-0.1c0,0,0.1-0.1,0.1-0.1c0.1,0,0.1,0,0.1,0.1
			c0,0,0.1,0.1,0.1,0.1c0,0.1,0,0.1-0.1,0.1c0,0-0.1,0.1-0.1,0.1C18.2,11.4,18.1,11.4,18.1,11.4z M18.4,11.5v1.1h-0.3v-1.1H18.4z"/>
		<path class="st1" d="M19.5,12.4H19l-0.1,0.2h-0.4l0.5-1.4h0.4l0.5,1.4h-0.4L19.5,12.4z M19.4,12.1l-0.2-0.5l-0.2,0.5H19.4z"/>
		<path class="st1" d="M20.6,11.6c0.1,0,0.1,0,0.2,0c0.1,0,0.2,0,0.3,0.1c0.1,0,0.1,0.1,0.2,0.2c0,0.1,0.1,0.2,0.1,0.3
			c0,0.1,0,0.2-0.1,0.3c0,0.1-0.1,0.2-0.2,0.2c-0.1,0-0.2,0.1-0.3,0.1c-0.1,0-0.1,0-0.2,0c-0.1,0-0.1-0.1-0.1-0.1v0.7h-0.3v-1.6h0.3
			v0.2C20.5,11.6,20.6,11.6,20.6,11.6z M20.9,11.9c0,0-0.1-0.1-0.2-0.1c-0.1,0-0.1,0-0.2,0.1c0,0-0.1,0.1-0.1,0.2
			c0,0.1,0,0.2,0.1,0.2c0,0,0.1,0.1,0.2,0.1s0.1,0,0.2-0.1c0-0.1,0.1-0.1,0.1-0.2C21,12,20.9,11.9,20.9,11.9z"/>
		<path class="st1" d="M22,11.6c0.1,0,0.1,0,0.2,0c0.1,0,0.2,0,0.3,0.1c0.1,0,0.1,0.1,0.2,0.2c0,0.1,0.1,0.2,0.1,0.3
			c0,0.1,0,0.2-0.1,0.3c0,0.1-0.1,0.2-0.2,0.2c-0.1,0-0.2,0.1-0.3,0.1c-0.1,0-0.1,0-0.2,0c-0.1,0-0.1-0.1-0.1-0.1v0.7h-0.3v-1.6h0.3
			v0.2C21.9,11.6,21.9,11.6,22,11.6z M22.2,11.9c0,0-0.1-0.1-0.2-0.1c-0.1,0-0.1,0-0.2,0.1c0,0-0.1,0.1-0.1,0.2c0,0.1,0,0.2,0.1,0.2
			c0,0,0.1,0.1,0.2,0.1s0.1,0,0.2-0.1c0-0.1,0.1-0.1,0.1-0.2C22.3,12,22.3,11.9,22.2,11.9z"/>
		<path class="st1" d="M23.1,12.6c-0.1,0-0.1-0.1-0.2-0.1s-0.1-0.1-0.1-0.2h0.4c0,0.1,0,0.1,0.1,0.1s0.1,0,0.1,0c0.1,0,0.1,0,0.1,0
			s0-0.1,0-0.1c0,0,0-0.1,0-0.1s-0.1,0-0.1-0.1s-0.1,0-0.1,0C23.2,12,23.1,12,23,12c-0.1,0-0.1-0.1-0.1-0.1c0-0.1-0.1-0.1-0.1-0.2
			c0-0.1,0-0.2,0.1-0.3c0.1-0.1,0.2-0.1,0.4-0.1c0.2,0,0.3,0,0.4,0.1s0.1,0.2,0.2,0.3h-0.4c0,0,0-0.1,0-0.1c0,0-0.1,0-0.1,0
			c0,0-0.1,0-0.1,0s0,0.1,0,0.1c0,0,0,0.1,0.1,0.1c0,0,0.1,0.1,0.2,0.1c0.1,0,0.2,0.1,0.2,0.1c0.1,0,0.1,0.1,0.1,0.1
			c0,0.1,0.1,0.1,0.1,0.2c0,0.1,0,0.2-0.1,0.2c0,0.1-0.1,0.1-0.2,0.2c-0.1,0-0.2,0.1-0.3,0.1C23.3,12.7,23.2,12.6,23.1,12.6z"/>
		<path class="st1" d="M24.7,12.4v0.3h-0.2c-0.1,0-0.2,0-0.3-0.1s-0.1-0.2-0.1-0.3v-0.4H24v-0.3h0.1v-0.3h0.3v0.3h0.2v0.3h-0.2v0.4
			c0,0,0,0.1,0,0.1s0,0,0.1,0H24.7z"/>
		<path class="st1" d="M25.1,12.6c-0.1,0-0.2-0.1-0.2-0.2s-0.1-0.2-0.1-0.3c0-0.1,0-0.2,0.1-0.3c0.1-0.1,0.1-0.2,0.2-0.2
			s0.2-0.1,0.3-0.1s0.2,0,0.3,0.1s0.2,0.1,0.2,0.2C26,11.9,26,12,26,12.1c0,0.1,0,0.2-0.1,0.3c-0.1,0.1-0.1,0.2-0.2,0.2
			s-0.2,0.1-0.3,0.1S25.2,12.6,25.1,12.6z M25.6,12.3c0,0,0.1-0.1,0.1-0.2c0-0.1,0-0.2-0.1-0.2s-0.1-0.1-0.2-0.1
			c-0.1,0-0.1,0-0.2,0.1c0,0-0.1,0.1-0.1,0.2c0,0.1,0,0.2,0.1,0.2c0,0,0.1,0.1,0.2,0.1S25.5,12.3,25.6,12.3z"/>
		<path class="st1" d="M26.7,11.6c0.1,0,0.1-0.1,0.2-0.1v0.4h-0.1c-0.1,0-0.1,0-0.2,0.1c0,0-0.1,0.1-0.1,0.2v0.5h-0.3v-1.1h0.3v0.2
			C26.5,11.7,26.6,11.6,26.7,11.6z"/>
		<path class="st1" d="M27,11.8c0-0.1,0.1-0.2,0.2-0.2c0.1,0,0.2-0.1,0.3-0.1c0.1,0,0.1,0,0.2,0s0.1,0.1,0.1,0.1v-0.2h0.3v1.1h-0.3
			v-0.2c0,0.1-0.1,0.1-0.1,0.1c-0.1,0-0.1,0-0.2,0c-0.1,0-0.2,0-0.2-0.1c-0.1,0-0.1-0.1-0.2-0.2c0-0.1-0.1-0.2-0.1-0.3
			C26.9,12,27,11.9,27,11.8z M27.7,11.9c0,0-0.1-0.1-0.2-0.1c-0.1,0-0.1,0-0.2,0.1c0,0-0.1,0.1-0.1,0.2c0,0.1,0,0.2,0.1,0.2
			c0,0,0.1,0.1,0.2,0.1c0.1,0,0.1,0,0.2-0.1c0,0,0.1-0.1,0.1-0.2C27.8,12,27.8,11.9,27.7,11.9z"/>
		<path class="st1" d="M29,11.6c0.1,0,0.1,0.1,0.1,0.1v-0.2h0.3v1.1c0,0.1,0,0.2-0.1,0.3s-0.1,0.1-0.2,0.2c-0.1,0-0.2,0.1-0.3,0.1
			c-0.2,0-0.3,0-0.4-0.1c-0.1-0.1-0.2-0.2-0.2-0.3h0.3c0,0,0,0.1,0.1,0.1c0,0,0.1,0,0.1,0c0.1,0,0.1,0,0.2-0.1s0.1-0.1,0.1-0.2v-0.2
			c0,0.1-0.1,0.1-0.1,0.1c-0.1,0-0.1,0-0.2,0c-0.1,0-0.2,0-0.3-0.1c-0.1,0-0.1-0.1-0.2-0.2c0-0.1-0.1-0.2-0.1-0.3
			c0-0.1,0-0.2,0.1-0.3c0-0.1,0.1-0.2,0.2-0.2c0.1,0,0.2-0.1,0.3-0.1C28.9,11.5,28.9,11.5,29,11.6z M29.1,11.9c0,0-0.1-0.1-0.2-0.1
			c-0.1,0-0.1,0-0.2,0.1c0,0-0.1,0.1-0.1,0.2c0,0.1,0,0.2,0.1,0.2c0,0,0.1,0.1,0.2,0.1c0.1,0,0.1,0,0.2-0.1c0,0,0.1-0.1,0.1-0.2
			C29.1,12,29.1,11.9,29.1,11.9z"/>
		<path class="st1" d="M30.8,12.2H30c0,0.1,0,0.1,0.1,0.2c0,0,0.1,0.1,0.1,0.1c0.1,0,0.1,0,0.2-0.1h0.4c0,0.1-0.1,0.1-0.1,0.2
			s-0.1,0.1-0.2,0.1c-0.1,0-0.2,0.1-0.2,0.1c-0.1,0-0.2,0-0.3-0.1c-0.1,0-0.2-0.1-0.2-0.2s-0.1-0.2-0.1-0.3s0-0.2,0.1-0.3
			c0-0.1,0.1-0.2,0.2-0.2c0.1,0,0.2-0.1,0.3-0.1c0.1,0,0.2,0,0.3,0.1s0.1,0.1,0.2,0.2c0,0.1,0.1,0.2,0.1,0.3
			C30.8,12.1,30.8,12.1,30.8,12.2z M30.4,12c0-0.1,0-0.1-0.1-0.1c0,0-0.1-0.1-0.1-0.1c-0.1,0-0.1,0-0.1,0c0,0-0.1,0.1-0.1,0.1H30.4z
			"/>
	</g>
</g>
<rect x="-33.8" y="0" width="31.9" height="25.8"/>
<path class="st1" d="M-21.8,13.9c0,0.2,0,0.4-0.1,0.5c-0.2,0.5-0.5,0.9-1,1.2c-0.2,0.1-0.5,0.2-0.8,0.2h-4.2c-0.2,0-0.3-0.1-0.4-0.2
	c-0.1-0.1-0.2-0.3-0.2-0.5s0.1-0.4,0.2-0.5c0.1-0.1,0.3-0.2,0.4-0.2h0.2c0.4,0,0.7-0.3,0.7-0.7c0-0.4-0.3-0.7-0.7-0.7h-2.2
	c-0.4,0-0.7-0.3-0.7-0.7c0-0.4,0.3-0.7,0.7-0.7h1.8c0.4,0,0.7-0.3,0.7-0.7c0-0.4-0.3-0.7-0.7-0.7h-0.6c-0.4,0-0.7-0.3-0.7-0.7
	c0-0.4,0.3-0.7,0.7-0.7h4.3c0,0,0.1,0,0.1,0c0.6,0,1.1,0.4,1.3,0.9c0.1,0.1,0.1,0.3,0.2,0.5c0,0.1,0,0.2,0,0.3
	c0,0.2-0.1,0.5-0.1,0.7c0,0,0,0.1-0.1,0.1c0,0.1,0,0.2,0,0.2c0,0.2,0.1,0.4,0.3,0.5c0,0,0.1,0,0.1,0.1c0.3,0.2,0.5,0.5,0.6,0.8
	C-21.9,13.3-21.8,13.6-21.8,13.9z"/>
<g>
	<path class="st1" d="M-18.8,11.6c0.1,0.1,0.1,0.2,0.1,0.4v0.7H-19V12c0-0.1,0-0.1-0.1-0.2c0,0-0.1-0.1-0.2-0.1
		c-0.1,0-0.1,0-0.2,0.1c0,0-0.1,0.1-0.1,0.2v0.6h-0.3V12c0-0.1,0-0.1-0.1-0.2c0,0-0.1-0.1-0.2-0.1c-0.1,0-0.1,0-0.2,0.1
		c0,0-0.1,0.1-0.1,0.2v0.6h-0.3v-1.1h0.3v0.1c0,0,0.1-0.1,0.1-0.1c0.1,0,0.1,0,0.2,0c0.1,0,0.2,0,0.2,0.1c0.1,0,0.1,0.1,0.2,0.2
		c0-0.1,0.1-0.1,0.2-0.1c0.1,0,0.1-0.1,0.2-0.1C-18.9,11.5-18.8,11.6-18.8,11.6z"/>
	<path class="st1" d="M-17.3,11.5v1.1h-0.3v-0.2c0,0-0.1,0.1-0.1,0.1c-0.1,0-0.1,0-0.2,0c-0.1,0-0.2,0-0.2-0.1s-0.1-0.1-0.2-0.2
		s-0.1-0.2-0.1-0.3v-0.7h0.3v0.6c0,0.1,0,0.1,0.1,0.2c0,0,0.1,0.1,0.2,0.1c0.1,0,0.1,0,0.2-0.1c0,0,0.1-0.1,0.1-0.2v-0.6H-17.3z"/>
	<path class="st1" d="M-16.6,11.6c0.1,0,0.1,0,0.2,0c0.1,0,0.2,0,0.3,0.1c0.1,0,0.1,0.1,0.2,0.2c0,0.1,0.1,0.2,0.1,0.3
		c0,0.1,0,0.2-0.1,0.3c0,0.1-0.1,0.2-0.2,0.2c-0.1,0-0.2,0.1-0.3,0.1c-0.1,0-0.1,0-0.2,0c-0.1,0-0.1-0.1-0.1-0.1v0.2H-17v-1.5h0.3
		v0.5C-16.7,11.6-16.6,11.6-16.6,11.6z M-16.3,11.9c0,0-0.1-0.1-0.2-0.1c-0.1,0-0.1,0-0.2,0.1c0,0-0.1,0.1-0.1,0.2
		c0,0.1,0,0.2,0.1,0.2c0,0,0.1,0.1,0.2,0.1s0.1,0,0.2-0.1c0-0.1,0.1-0.1,0.1-0.2C-16.2,12-16.2,11.9-16.3,11.9z"/>
	<path class="st1" d="M-15.7,11.4c0,0-0.1-0.1-0.1-0.1c0-0.1,0-0.1,0.1-0.1c0,0,0.1-0.1,0.1-0.1c0.1,0,0.1,0,0.1,0.1
		c0,0,0.1,0.1,0.1,0.1c0,0.1,0,0.1-0.1,0.1c0,0-0.1,0.1-0.1,0.1C-15.6,11.4-15.6,11.4-15.7,11.4z M-15.3,11.5v1.1h-0.3v-1.1H-15.3z"
		/>
	<path class="st1" d="M-14.2,12.4h-0.5l-0.1,0.2h-0.4l0.5-1.4h0.4l0.5,1.4h-0.4L-14.2,12.4z M-14.3,12.1l-0.2-0.5l-0.2,0.5H-14.3z"
		/>
	<path class="st1" d="M-13.1,11.6c0.1,0,0.1,0,0.2,0c0.1,0,0.2,0,0.3,0.1c0.1,0,0.1,0.1,0.2,0.2c0,0.1,0.1,0.2,0.1,0.3
		c0,0.1,0,0.2-0.1,0.3c0,0.1-0.1,0.2-0.2,0.2c-0.1,0-0.2,0.1-0.3,0.1c-0.1,0-0.1,0-0.2,0c-0.1,0-0.1-0.1-0.1-0.1v0.7h-0.3v-1.6h0.3
		v0.2C-13.2,11.6-13.2,11.6-13.1,11.6z M-12.9,11.9c0,0-0.1-0.1-0.2-0.1c-0.1,0-0.1,0-0.2,0.1c0,0-0.1,0.1-0.1,0.2
		c0,0.1,0,0.2,0.1,0.2c0,0,0.1,0.1,0.2,0.1s0.1,0,0.2-0.1c0-0.1,0.1-0.1,0.1-0.2C-12.8,12-12.8,11.9-12.9,11.9z"/>
	<path class="st1" d="M-11.8,11.6c0.1,0,0.1,0,0.2,0c0.1,0,0.2,0,0.3,0.1c0.1,0,0.1,0.1,0.2,0.2c0,0.1,0.1,0.2,0.1,0.3
		c0,0.1,0,0.2-0.1,0.3c0,0.1-0.1,0.2-0.2,0.2c-0.1,0-0.2,0.1-0.3,0.1c-0.1,0-0.1,0-0.2,0c-0.1,0-0.1-0.1-0.1-0.1v0.7h-0.3v-1.6h0.3
		v0.2C-11.9,11.6-11.8,11.6-11.8,11.6z M-11.5,11.9c0,0-0.1-0.1-0.2-0.1c-0.1,0-0.1,0-0.2,0.1c0,0-0.1,0.1-0.1,0.2
		c0,0.1,0,0.2,0.1,0.2c0,0,0.1,0.1,0.2,0.1s0.1,0,0.2-0.1c0-0.1,0.1-0.1,0.1-0.2C-11.4,12-11.5,11.9-11.5,11.9z"/>
	<path class="st1" d="M-10.7,12.6c-0.1,0-0.1-0.1-0.2-0.1s-0.1-0.1-0.1-0.2h0.4c0,0.1,0,0.1,0.1,0.1s0.1,0,0.1,0c0.1,0,0.1,0,0.1,0
		s0-0.1,0-0.1c0,0,0-0.1,0-0.1s-0.1,0-0.1-0.1s-0.1,0-0.1,0c-0.1,0-0.2-0.1-0.2-0.1c-0.1,0-0.1-0.1-0.1-0.1c0-0.1-0.1-0.1-0.1-0.2
		c0-0.1,0-0.2,0.1-0.3c0.1-0.1,0.2-0.1,0.4-0.1c0.2,0,0.3,0,0.4,0.1s0.1,0.2,0.2,0.3h-0.4c0,0,0-0.1,0-0.1c0,0-0.1,0-0.1,0
		c0,0-0.1,0-0.1,0s0,0.1,0,0.1c0,0,0,0.1,0.1,0.1c0,0,0.1,0.1,0.2,0.1c0.1,0,0.2,0.1,0.2,0.1c0.1,0,0.1,0.1,0.1,0.1
		c0,0.1,0.1,0.1,0.1,0.2c0,0.1,0,0.2-0.1,0.2c0,0.1-0.1,0.1-0.2,0.2c-0.1,0-0.2,0.1-0.3,0.1C-10.5,12.7-10.6,12.6-10.7,12.6z"/>
	<path class="st1" d="M-9.1,12.4v0.3h-0.2c-0.1,0-0.2,0-0.3-0.1s-0.1-0.2-0.1-0.3v-0.4h-0.1v-0.3h0.1v-0.3h0.3v0.3h0.2v0.3h-0.2v0.4
		c0,0,0,0.1,0,0.1s0,0,0.1,0H-9.1z"/>
	<path class="st1" d="M-8.6,12.6c-0.1,0-0.2-0.1-0.2-0.2s-0.1-0.2-0.1-0.3c0-0.1,0-0.2,0.1-0.3c0.1-0.1,0.1-0.2,0.2-0.2
		s0.2-0.1,0.3-0.1s0.2,0,0.3,0.1c0.1,0,0.2,0.1,0.2,0.2c0.1,0.1,0.1,0.2,0.1,0.3c0,0.1,0,0.2-0.1,0.3c-0.1,0.1-0.1,0.2-0.2,0.2
		c-0.1,0-0.2,0.1-0.3,0.1S-8.6,12.6-8.6,12.6z M-8.2,12.3c0,0,0.1-0.1,0.1-0.2c0-0.1,0-0.2-0.1-0.2s-0.1-0.1-0.2-0.1
		c-0.1,0-0.1,0-0.2,0.1c0,0-0.1,0.1-0.1,0.2c0,0.1,0,0.2,0.1,0.2c0,0,0.1,0.1,0.2,0.1S-8.2,12.3-8.2,12.3z"/>
	<path class="st1" d="M-7.1,11.6c0.1,0,0.1-0.1,0.2-0.1v0.4H-7c-0.1,0-0.1,0-0.2,0.1c0,0-0.1,0.1-0.1,0.2v0.5h-0.3v-1.1h0.3v0.2
		C-7.2,11.7-7.2,11.6-7.1,11.6z"/>
	<path class="st1" d="M-6.7,11.8c0-0.1,0.1-0.2,0.2-0.2c0.1,0,0.2-0.1,0.3-0.1c0.1,0,0.1,0,0.2,0S-6,11.6-6,11.7v-0.2h0.3v1.1H-6
		v-0.2c0,0.1-0.1,0.1-0.1,0.1c-0.1,0-0.1,0-0.2,0c-0.1,0-0.2,0-0.2-0.1c-0.1,0-0.1-0.1-0.2-0.2c0-0.1-0.1-0.2-0.1-0.3
		C-6.8,12-6.8,11.9-6.7,11.8z M-6,11.9c0,0-0.1-0.1-0.2-0.1c-0.1,0-0.1,0-0.2,0.1c0,0-0.1,0.1-0.1,0.2c0,0.1,0,0.2,0.1,0.2
		c0,0,0.1,0.1,0.2,0.1c0.1,0,0.1,0,0.2-0.1c0,0,0.1-0.1,0.1-0.2C-6,12-6,11.9-6,11.9z"/>
	<path class="st1" d="M-4.7,11.6c0.1,0,0.1,0.1,0.1,0.1v-0.2h0.3v1.1c0,0.1,0,0.2-0.1,0.3s-0.1,0.1-0.2,0.2c-0.1,0-0.2,0.1-0.3,0.1
		c-0.2,0-0.3,0-0.4-0.1c-0.1-0.1-0.2-0.2-0.2-0.3h0.3c0,0,0,0.1,0.1,0.1c0,0,0.1,0,0.1,0c0.1,0,0.1,0,0.2-0.1s0.1-0.1,0.1-0.2v-0.2
		c0,0.1-0.1,0.1-0.1,0.1c-0.1,0-0.1,0-0.2,0c-0.1,0-0.2,0-0.3-0.1c-0.1,0-0.1-0.1-0.2-0.2c0-0.1-0.1-0.2-0.1-0.3
		c0-0.1,0-0.2,0.1-0.3c0-0.1,0.1-0.2,0.2-0.2c0.1,0,0.2-0.1,0.3-0.1C-4.9,11.5-4.8,11.5-4.7,11.6z M-4.7,11.9c0,0-0.1-0.1-0.2-0.1
		c-0.1,0-0.1,0-0.2,0.1c0,0-0.1,0.1-0.1,0.2c0,0.1,0,0.2,0.1,0.2c0,0,0.1,0.1,0.2,0.1c0.1,0,0.1,0,0.2-0.1c0,0,0.1-0.1,0.1-0.2
		C-4.6,12-4.6,11.9-4.7,11.9z"/>
	<path class="st1" d="M-3,12.2h-0.8c0,0.1,0,0.1,0.1,0.2c0,0,0.1,0.1,0.1,0.1c0.1,0,0.1,0,0.2-0.1H-3c0,0.1-0.1,0.1-0.1,0.2
		s-0.1,0.1-0.2,0.1c-0.1,0-0.2,0.1-0.2,0.1c-0.1,0-0.2,0-0.3-0.1c-0.1,0-0.2-0.1-0.2-0.2s-0.1-0.2-0.1-0.3s0-0.2,0.1-0.3
		c0-0.1,0.1-0.2,0.2-0.2c0.1,0,0.2-0.1,0.3-0.1c0.1,0,0.2,0,0.3,0.1s0.1,0.1,0.2,0.2C-3,11.9-3,12-3,12.1C-3,12.1-3,12.1-3,12.2z
		 M-3.3,12c0-0.1,0-0.1-0.1-0.1c0,0-0.1-0.1-0.1-0.1c-0.1,0-0.1,0-0.1,0c0,0-0.1,0.1-0.1,0.1H-3.3z"/>
</g>
</svg>
